<svg xmlns="http://www.w3.org/2000/svg" viewBox="0 0 90.09 68.02"><defs><style>.cls-1{fill:#333;}</style></defs><title>Asset 18</title><g id="Layer_2" data-name="Layer 2"><g id="back2"><path class="cls-1" d="M41.1,3.94a68.67,68.67,0,0,1,18.11-.61C64.42,4,69.29,5.79,74.1,7.8c4.23,1.76,8.62,4,11.09,8,2.35,3.85,2.25,8.33,1,12.54a33.74,33.74,0,0,1-7.26,12.44,40.87,40.87,0,0,1-10.8,8.26,59.08,59.08,0,0,1-9.8,4.59,54.37,54.37,0,0,1-11.83,2.47c-6.83.72-13.75.79-20.61.85a214.61,214.61,0,0,1-23.1-.86c-1.92-.19-1.91,2.81,0,3A213.63,213.63,0,0,0,24.39,60c6.75,0,13.54-.11,20.26-.7a62.85,62.85,0,0,0,13.47-2.42A57.58,57.58,0,0,0,68.65,52.2,45.9,45.9,0,0,0,80.3,43.73a38.79,38.79,0,0,0,8.28-13.12c1.55-4.26,2.2-9.21.54-13.54C87.28,12.28,83.39,9,78.91,6.71c-2.81-1.42-5.77-2.52-8.7-3.65A43.59,43.59,0,0,0,61.52.65C54.47-.49,47.33,0,40.3,1.05c-1.9.28-1.09,3.17.8,2.89Z"/><path class="cls-1" d="M10.94,49.4c-3.37,2.24-6.55,4.74-9.69,7.3a1.51,1.51,0,0,0,0,2.12c3.23,2.72,6.05,5.87,9.11,8.78,1.39,1.33,3.52-.79,2.12-2.12C9.42,62.57,6.6,59.42,3.37,56.7v2.12c2.94-2.4,5.93-4.73,9.09-6.83,1.6-1.06.1-3.66-1.52-2.59Z"/><path class="cls-1" d="M.77,19C.64,26.38.18,33.73.12,41.09l2.95-.4a9.05,9.05,0,0,1,2.16-7.6,5.88,5.88,0,0,1,3.3-1.82,2.73,2.73,0,0,1,2.66,1.67c1.26,2.15,2.18,5.46-.29,7.08a6,6,0,0,1-7.42-.63C2,38.14-.11,40.25,1.36,41.51a9.24,9.24,0,0,0,8.85,2.15,8.59,8.59,0,0,0,3.92-2.5,6.65,6.65,0,0,0,1.3-4.71c-.2-2.74-1.65-6.32-4.22-7.64-2.85-1.45-6.38.21-8.34,2.42A12.31,12.31,0,0,0,.18,41.49c.26,1.7,2.93,1.24,2.94-.4.06-7.36.52-14.71.65-22.07,0-1.93-3-1.93-3,0Z"/><path class="cls-1" d="M29.65,31.25a6.3,6.3,0,0,0-7.36-.86,9.64,9.64,0,0,0-3,3,11.3,11.3,0,0,0-1.8,3.79,5.34,5.34,0,0,0,.59,4.12,5.92,5.92,0,0,0,3.25,2.14c2.68.79,5.94.56,8-1.47s2.15-5.36,1.85-8.14l-2.95.4a30.15,30.15,0,0,0,3.81,8.95,1.5,1.5,0,0,0,2.59-1.51,27.81,27.81,0,0,1-3.51-8.24c-.34-1.62-3.13-1.3-2.94.4s.41,3.64-.36,5.15-2.71,2-4.42,1.84a5.76,5.76,0,0,1-2.32-.71,1.54,1.54,0,0,1-.77-1.63,5.66,5.66,0,0,1,.89-2.5A9.2,9.2,0,0,1,23,33.62a3.27,3.27,0,0,1,4.54-.24c1.4,1.32,3.53-.79,2.12-2.13Z"/><path class="cls-1" d="M48.5,31.32c-.76-2.54-3.6-3.43-6-2.91A9.4,9.4,0,0,0,36.9,32a7,7,0,0,0-1.1,6.26A8,8,0,0,0,40.54,43c2.8,1.06,5.82,0,8.26-1.44,1.65-1,.14-3.59-1.51-2.59a7.62,7.62,0,0,1-4.93,1.43A5,5,0,0,1,39,38.1a3.66,3.66,0,0,1-.53-1.72,4.06,4.06,0,0,1,.44-1.84A5.54,5.54,0,0,1,42,31.7a9.14,9.14,0,0,1,1.28-.4,2.79,2.79,0,0,1,.51-.07h.27c.26,0-.16,0,.09,0a2,2,0,0,1,1,.38,1.09,1.09,0,0,1,.41.51c.54,1.85,3.44,1.06,2.89-.8Z"/><path class="cls-1" d="M52.9,21.44c.2,6.68-.25,13.37,0,20.05,0,1.37,2.14,2.19,2.79.76a42,42,0,0,1,6.07-10.16l-2.51-1.46c-.79,2.23-3.3,4-2.17,6.66a15.7,15.7,0,0,0,2.48,3.23,20.47,20.47,0,0,0,3.12,3.19,1.55,1.55,0,0,0,2.12,0,1.51,1.51,0,0,0,0-2.12,17.8,17.8,0,0,1-2.55-2.51c-.39-.45-.76-.92-1.13-1.39a15,15,0,0,1-1.15-1.38c-.42-.67.27-1.52.65-2.09a12.79,12.79,0,0,0,1.52-2.79A1.51,1.51,0,0,0,59.6,30a44.62,44.62,0,0,0-6.54,10.76l2.8.76c-.21-6.68.24-13.37,0-20-.06-1.93-3.06-1.94-3,0Z"/></g></g></svg>