<svg xmlns="http://www.w3.org/2000/svg" viewBox="0 0 42.99 24.56"><title>Asset 41</title><g id="Layer_2" data-name="Layer 2"><g id="toggleL3"><path d="M30.89,14.21c-7.75.7-15.4,2.16-23.13,3-1.9.2-1.92,3.2,0,3,7.73-.8,15.38-2.26,23.13-3,1.9-.17,1.92-3.17,0-3Z"/><path d="M30.5,6.43c-8.33-.64-16.62-1.83-25-2-1.93,0-1.93,3,0,3,8.36.19,16.65,1.38,25,2,1.92.15,1.91-2.85,0-3Z"/><path d="M9.87,17.43a16.61,16.61,0,0,0,0-8A6.47,6.47,0,0,0,8.49,6a4.65,4.65,0,0,0-4-1.46A5.31,5.31,0,0,0,1,6.79,5.45,5.45,0,0,0,.35,8.73a15,15,0,0,0,.09,6.79,6.72,6.72,0,0,0,1.65,3.54,5.9,5.9,0,0,0,4.08,1.35,4.14,4.14,0,0,0,3.7-3,1.5,1.5,0,0,0-1-1.84A1.52,1.52,0,0,0,7,16.64a1.61,1.61,0,0,1-.7.78c-.24.14.18,0,0,0s-.26,0,.09,0c-.18,0-.36,0-.54,0l-.27,0c-.26,0,.36.08-.1,0a5.63,5.63,0,0,1-.59-.14,3.4,3.4,0,0,1-.79-.4c-.06,0-.19-.25,0,0a1.32,1.32,0,0,1-.12-.2s-.23-.49-.15-.29a11.74,11.74,0,0,1-.49-1.63A13.12,13.12,0,0,1,3,11.2a12.62,12.62,0,0,1,.46-2.76c0-.06.1-.24,0,0,0-.06.16-.17,0-.05a4.15,4.15,0,0,0,.31-.31A3.05,3.05,0,0,1,5,7.53c.28-.09.11,0,0,0h.34c-.13,0,.13,0,.12,0,.43.1-.06-.06.15.06A2.9,2.9,0,0,1,6,7.82l.28.23s.28.3.14.11.18.38.09.19,0,.1,0,.14.09.24.12.36c.15.49.26,1,.36,1.5a13.12,13.12,0,0,1,0,6.29A1.5,1.5,0,0,0,9.87,17.43Z"/><path d="M22,18.92c2.21,3.62,5.45,6,9.84,5.59,4-.37,8.25-2.15,10-6.06a15.86,15.86,0,0,0,0-11.9A8.21,8.21,0,0,0,38.39,2.3,15.39,15.39,0,0,0,32.75.15a15,15,0,0,0-6.93.63c-2.1.73-4.42,2.33-5,4.59-.48,1.87,2.41,2.67,2.89.8.34-1.31,2-2.22,3.2-2.59A12.57,12.57,0,0,1,31.58,3c2.77.17,6.06,1.56,7.27,4.17a13.28,13.28,0,0,1,.76,8.54c-.86,3.27-3.46,5-6.69,5.63A7.52,7.52,0,0,1,28,21a9.11,9.11,0,0,1-3.4-3.54c-1-1.64-3.6-.14-2.59,1.51Z"/></g></g></svg>